<?xml version="1.0" encoding="UTF-8"?>
<svg id="Layer_1" xmlns="http://www.w3.org/2000/svg" xmlns:xlink="http://www.w3.org/1999/xlink" version="1.1" viewBox="0 0 425.2 425.2">
  <!-- Generator: Adobe Illustrator 30.0.0, SVG Export Plug-In . SVG Version: 2.1.1 Build 123)  -->
  <defs>
    <style>
      .st0 {
        fill: none;
      }

      .st1 {
        fill: blue;
      }

      .st2 {
        fill: #fff;
      }

      .st3 {
        clip-path: url(#clippath);
      }
    </style>
    <clipPath id="clippath">
      <rect class="st0" width="425.2" height="425.2"/>
    </clipPath>
  </defs>
  <rect class="st1" x="0" y="0" width="425.2" height="425.2" rx="135.27" ry="135.27"/>
  <g class="st3">
    <g>
      <path class="st2" d="M285.84,301.24l-131.4,3.65,74.59-33.09c9.73-4.33,14.1-15.71,9.79-25.43-4.33-9.73-15.71-14.1-25.43-9.79,0,0-158.9,70.5-160.26,71.1l-117.47,3.92,217.92-178.12c2.26-1.73,4.06-3.89,5.33-6.31,0-.02.02-.03.02-.05.28-.53.53-1.07.75-1.62.02-.06.04-.11.06-.17.21-.51.39-1.03.55-1.56.02-.08.04-.16.07-.24.15-.51.28-1.02.38-1.54.02-.1.03-.2.05-.3.09-.5.17-1,.23-1.51.01-.13.02-.25.03-.38.04-.48.07-.96.08-1.44,0-.18,0-.35-.01-.53,0-.43-.02-.85-.06-1.28-.02-.26-.06-.51-.09-.76-.04-.34-.08-.69-.14-1.03-.07-.37-.15-.73-.24-1.09-.06-.23-.1-.46-.16-.68-.13-.48-.3-.96-.47-1.44-.04-.11-.07-.22-.12-.33-.21-.55-.46-1.09-.72-1.62-.02-.04-.04-.09-.06-.13,0,0,0-.01-.01-.02-.27-.53-.57-1.06-.9-1.57-.03-.05-.05-.1-.08-.14-.26-.41-.56-.81-.86-1.2-.1-.14-.2-.28-.3-.41-.04-.05-.07-.1-.11-.15-.23-.28-.48-.53-.72-.8-.15-.17-.3-.34-.45-.5-.31-.31-.63-.6-.96-.89-.14-.13-.28-.26-.43-.39-.36-.3-.74-.58-1.12-.86-.12-.09-.24-.18-.36-.27-.41-.28-.82-.53-1.25-.77-.11-.06-.22-.14-.33-.2-.43-.24-.87-.45-1.31-.65-.12-.06-.24-.12-.36-.17-.43-.18-.87-.35-1.31-.5-.15-.05-.29-.11-.44-.16-.42-.13-.84-.24-1.26-.35-.18-.05-.36-.1-.55-.14-.4-.09-.8-.15-1.21-.21-.21-.03-.42-.07-.63-.09-.4-.05-.79-.07-1.19-.09-.22-.01-.44-.03-.66-.03-.42,0-.84,0-1.26.03-.19,0-.38.01-.58.02-.49.04-.97.1-1.46.18-.12.02-.24.03-.36.05-.6.1-1.19.24-1.78.4,0,0,0,0,0,0-1.41.38-2.78.93-4.09,1.64l-432.53,219.66c-9.5,4.83-13.28,16.41-8.46,25.91,4.83,9.5,16.41,13.28,25.91,8.46L-8.43,216.11l-122.59,100.2c-8.23,6.73-9.45,18.88-2.72,27.11,4.29,5.25,10.79,7.63,17.07,6.93,2.34.9,4.9,1.36,7.57,1.27l67.34-2.24-275.15,119.47c-9.75,4.26-14.21,15.6-9.97,25.37,4.24,9.75,15.6,14.21,25.34,9.97L62.9,345.96s.1,0,.15,0l223.86-6.21c10.63-.29,19.02-9.16,18.72-19.79-.29-10.63-9.16-19.02-19.79-18.72Z"/>
      <circle class="st2" cx="281.29" cy="223.58" r="22.67" transform="translate(-32.92 397.89) rotate(-67.5)"/>
      <circle class="st2" cx="344.76" cy="318.79" r="22.67" transform="translate(-81.7 515.31) rotate(-67.5)"/>
    </g>
  </g>
</svg>