<svg width="61" height="33" viewBox="0 0 61 33" fill="none" xmlns="http://www.w3.org/2000/svg">
<circle cx="31" cy="17" r="2" fill="white"/>
<circle cx="31" cy="17" r="6.75" stroke="white" stroke-width="0.5"/>
<line x1="38.25" y1="6" x2="38.25" y2="10" stroke="white" stroke-width="0.5"/>
<line x1="38" y1="9.75" x2="42" y2="9.75" stroke="white" stroke-width="0.5"/>
<line x1="23.75" y1="28" x2="23.75" y2="24" stroke="white" stroke-width="0.5"/>
<line x1="24" y1="24.25" x2="20" y2="24.25" stroke="white" stroke-width="0.5"/>
<line y1="-0.25" x2="4" y2="-0.25" transform="matrix(0 -1 -1 0 38 28)" stroke="white" stroke-width="0.5"/>
<line y1="-0.25" x2="4" y2="-0.25" transform="matrix(1 0 0 -1 38 24)" stroke="white" stroke-width="0.5"/>
<line y1="-0.25" x2="4" y2="-0.25" transform="matrix(0 1 1 0 24 6)" stroke="white" stroke-width="0.5"/>
<line y1="-0.25" x2="4" y2="-0.25" transform="matrix(-1 0 0 1 24 10)" stroke="white" stroke-width="0.5"/>
</svg>
